<?xml version="1.0" encoding="UTF-8"?>
<svg id="Color" xmlns="http://www.w3.org/2000/svg" viewBox="0 0 256 256">
  <defs>
    <style>
      .cls-1 {
        fill: #204051;
      }

      .cls-1, .cls-2, .cls-3 {
        stroke-width: 0px;
      }

      .cls-2 {
        fill: #fff;
      }

      .cls-3 {
        fill: #ffcc3f;
      }
    </style>
  </defs>
  <g id="logo">
    <g>
      <path class="cls-2" d="m36.33,88c-2.78,6.35-4.91,13.04-6.33,20h196c-1.41-6.96-3.55-13.65-6.33-20H36.33Z"/>
      <path class="cls-2" d="m227.5,118H28.5c-.33,3.29-.5,6.62-.5,10s.17,6.71.5,10h199.01c.33-3.29.5-6.62.5-10s-.17-6.71-.5-10Z"/>
      <path class="cls-2" d="m30,148c1.41,6.96,3.55,13.65,6.33,20h183.34c2.78-6.35,4.91-13.04,6.33-20H30Z"/>
    </g>
    <g>
      <rect id="linea3" class="cls-1" x="103" y="118" width="150" height="20" rx="4.5" ry="4.5"/>
      <rect id="linea2" class="cls-1" x="103" y="88" width="150" height="20" rx="4.5" ry="4.5"/>
      <rect id="linea1" class="cls-1" x="103" y="148" width="150" height="20" rx="4.5" ry="4.5"/>
    </g>
    <g>
      <path class="cls-3" d="m28.5,118h199.01c-.34-3.39-.84-6.72-1.51-10H30c-.67,3.28-1.17,6.61-1.51,10Z"/>
      <path class="cls-3" d="m227.5,138H28.5c.34,3.39.84,6.72,1.51,10h196c.67-3.28,1.17-6.61,1.51-10Z"/>
      <path class="cls-3" d="m219.67,88c-15.43-35.32-50.67-60-91.67-60s-76.24,24.68-91.67,60h183.34Z"/>
      <path class="cls-3" d="m36.33,168c15.43,35.32,50.67,60,91.67,60s76.24-24.68,91.67-60H36.33Z"/>
    </g>
  </g>
</svg>